<?xml version="1.0" encoding="UTF-8"?>
<svg id="Layer_1" xmlns="http://www.w3.org/2000/svg" version="1.1" viewBox="0 0 296.19 120.22">
  <!-- Generator: Adobe Illustrator 29.6.1, SVG Export Plug-In . SVG Version: 2.1.1 Build 9)  -->
  <defs>
    <style>
      .st0 {
        fill: #7f8c8d;
      }

      .st1, .st2 {
        fill: none;
      }

      .st3, .st4, .st5 {
        fill: #8b4513;
      }

      .st2 {
        stroke: #4a90e2;
      }

      .st2, .st4, .st6 {
        stroke-width: 2px;
      }

      .st7 {
        fill: wheat;
        stroke: #deb887;
      }

      .st8 {
        isolation: isolate;
      }

      .st4, .st5, .st9 {
        stroke: #654321;
      }

      .st10 {
        fill: #95a5a6;
      }

      .st11 {
        fill: #654321;
      }

      .st12 {
        fill: #fff;
      }

      .st13 {
        fill: #c8102e;
      }

      .st14 {
        fill: #bdc3c7;
      }

      .st15 {
        opacity: .7;
      }

      .st6 {
        fill: #d2691e;
        stroke: sienna;
      }

      .st9 {
        fill: #2c3e50;
      }
    </style>
  </defs>
  <g id="building-icon">
    <rect class="st5" x="34.7" y="90.11" width="60" height="8"/>
    <rect class="st6" x="39.7" y="50.11" width="50" height="40"/>
    <rect class="st7" x="44.7" y="55.11" width="8" height="8"/>
    <rect class="st7" x="56.7" y="55.11" width="8" height="8"/>
    <rect class="st7" x="68.7" y="55.11" width="8" height="8"/>
    <rect class="st7" x="44.7" y="67.11" width="8" height="8"/>
    <rect class="st7" x="56.7" y="67.11" width="8" height="8"/>
    <rect class="st7" x="68.7" y="67.11" width="8" height="8"/>
    <rect class="st9" x="50.7" y="79.11" width="8" height="11"/>
    <polygon class="st4" points="34.7 50.11 64.7 35.11 94.7 50.11 34.7 50.11"/>
    <g id="sound-waves" class="st15">
      <path class="st2" d="M99.7,45.11c6.67-3.33,6.67-6.67,0-10"/>
      <path class="st2" d="M99.7,55.11c10-6.67,10-13.33,0-20"/>
      <path class="st2" d="M99.7,65.11c13.33-10,13.33-20,0-30"/>
    </g>
  </g>
  <g class="st8">
    <g class="st8">
      <path class="st12" d="M135.54,54.9c-1.58,1.36-3.6,2.03-6.04,2.03h-8.13c-.13,0-.25-.05-.34-.14-.09-.09-.14-.21-.14-.34v-27.2c0-.13.05-.25.14-.34.09-.09.21-.14.34-.14h7.08c2.79,0,4.98.65,6.58,1.95,1.6,1.3,2.39,3.25,2.39,5.86s-.85,4.47-2.54,5.67c-.13.08-.15.16-.04.24,2.04,1.5,3.06,3.7,3.06,6.6,0,2.52-.79,4.46-2.37,5.81ZM127.57,34.68v5.15c0,.13.07.2.2.2h.76c.75,0,1.33-.24,1.73-.71.4-.47.6-1.15.6-2.03s-.2-1.61-.6-2.09c-.4-.48-.98-.72-1.73-.72h-.76c-.13,0-.2.07-.2.2ZM130.63,50.37c.4-.54.6-1.3.6-2.29s-.2-1.78-.6-2.37-.94-.89-1.61-.89h-1.25c-.13,0-.2.07-.2.2v5.96c0,.13.07.2.2.2h1.21c.7,0,1.25-.27,1.65-.81Z"/>
      <path class="st12" d="M143.65,56.71c-.09-.09-.14-.21-.14-.34v-9.9l-.04-.24-5.63-16.9c-.03-.05-.04-.12-.04-.2,0-.24.13-.36.4-.36h6.04c.27,0,.44.15.52.44l2.01,8.85c.03.11.07.16.12.16s.09-.05.12-.16l2.01-8.85c.08-.29.25-.44.52-.44h6.04c.16,0,.27.05.34.14.07.09.07.24.02.42l-5.71,16.9-.04.24v9.9c0,.13-.05.25-.14.34-.09.09-.21.14-.34.14h-5.71c-.13,0-.25-.05-.34-.14Z"/>
      <path class="st12" d="M159.08,55.1c-1.53-1.43-2.29-3.36-2.29-5.77v-13c0-2.42.76-4.33,2.29-5.75,1.53-1.42,3.57-2.13,6.12-2.13s4.59.72,6.14,2.17c1.54,1.45,2.31,3.38,2.31,5.79v1.49c0,.13-.05.25-.14.34s-.21.14-.34.14h-5.71c-.13,0-.25-.05-.34-.14-.09-.09-.14-.21-.14-.34v-1.57c0-.64-.16-1.17-.48-1.57s-.75-.6-1.29-.6-.93.2-1.25.6c-.32.4-.48.92-.48,1.57v13.04c0,.64.16,1.17.48,1.57.32.4.74.6,1.25.6.54,0,.97-.2,1.29-.6s.48-.92.48-1.57v-2.58c0-.13-.07-.2-.2-.2h-1.05c-.13,0-.25-.05-.34-.14-.09-.09-.14-.21-.14-.34v-4.27c0-.13.05-.25.14-.34.09-.09.21-.14.34-.14h7.44c.13,0,.25.05.34.14s.14.21.14.34v7.48c0,2.41-.77,4.34-2.31,5.77-1.54,1.44-3.59,2.15-6.14,2.15s-4.59-.72-6.12-2.15Z"/>
      <path class="st12" d="M178.11,55.1c-1.53-1.43-2.29-3.36-2.29-5.77v-13c0-2.42.76-4.33,2.29-5.75,1.53-1.42,3.57-2.13,6.12-2.13s4.59.72,6.14,2.17c1.54,1.45,2.31,3.38,2.31,5.79v1.49c0,.13-.05.25-.14.34s-.21.14-.34.14h-5.71c-.13,0-.25-.05-.34-.14-.09-.09-.14-.21-.14-.34v-1.57c0-.64-.16-1.17-.48-1.57s-.75-.6-1.29-.6-.92.2-1.25.6-.48.92-.48,1.57v13.04c0,.64.16,1.17.48,1.57s.74.6,1.25.6c.54,0,.97-.2,1.29-.6s.48-.92.48-1.57v-2.58c0-.13-.07-.2-.2-.2h-1.05c-.13,0-.25-.05-.34-.14-.09-.09-.14-.21-.14-.34v-4.27c0-.13.05-.25.14-.34.09-.09.21-.14.34-.14h7.44c.13,0,.25.05.34.14s.14.21.14.34v7.48c0,2.41-.77,4.34-2.31,5.77-1.54,1.44-3.59,2.15-6.14,2.15s-4.59-.72-6.12-2.15Z"/>
      <path class="st12" d="M210.49,34.34c-.09.09-.21.14-.34.14h-8.09c-.13,0-.2.07-.2.2v5.07c0,.13.07.2.2.2h4.43c.13,0,.25.05.34.14.09.09.14.21.14.34v4.79c0,.13-.05.25-.14.34s-.21.14-.34.14h-4.43c-.13,0-.2.07-.2.2v5.11c0,.13.07.2.2.2h8.09c.13,0,.25.05.34.14.09.09.14.21.14.34v4.75c0,.13-.05.25-.14.34-.09.09-.21.14-.34.14h-14.49c-.13,0-.25-.05-.34-.14s-.14-.21-.14-.34v-27.2c0-.13.05-.25.14-.34.09-.09.21-.14.34-.14h14.49c.13,0,.25.05.34.14.09.09.14.21.14.34v4.75c0,.13-.05.25-.14.34Z"/>
      <path class="st12" d="M223.34,56.53l-2.74-10.66c-.03-.11-.09-.16-.2-.16h-.6c-.13,0-.2.07-.2.2v10.54c0,.13-.05.25-.14.34s-.21.14-.34.14h-5.71c-.13,0-.25-.05-.34-.14-.09-.09-.14-.21-.14-.34v-27.2c0-.13.05-.25.14-.34s.21-.14.34-.14h8.65c1.56,0,2.94.37,4.14,1.11,1.21.74,2.14,1.77,2.8,3.1s.99,2.84.99,4.53c0,1.5-.28,2.85-.83,4.04s-1.32,2.15-2.31,2.88c-.05.03-.09.06-.12.1-.03.04-.03.09,0,.14l3.46,11.71.04.16c0,.27-.15.4-.44.4h-5.88c-.3,0-.48-.13-.56-.4ZM219.6,34.68v5.71c0,.13.07.2.2.2h1.13c.72,0,1.3-.27,1.73-.8.43-.54.64-1.27.64-2.21,0-.99-.22-1.76-.64-2.29-.43-.54-1.01-.8-1.73-.8h-1.13c-.13,0-.2.07-.2.2Z"/>
      <path class="st12" d="M232.42,56.79c-.09-.09-.14-.21-.14-.34v-27.2c0-.13.05-.25.14-.34.09-.09.21-.14.34-.14h5.71c.13,0,.25.05.34.14.09.09.14.21.14.34v27.2c0,.13-.05.25-.14.34-.09.09-.21.14-.34.14h-5.71c-.13,0-.25-.05-.34-.14Z"/>
    </g>
  </g>
  <g class="st8">
    <g class="st8">
      <path class="st0" d="M121.32,76.24c-.83-.81-1.24-1.9-1.24-3.25v-6.7c0-1.37.41-2.45,1.24-3.25.83-.8,1.93-1.2,3.31-1.2s2.49.4,3.33,1.2c.84.8,1.25,1.88,1.25,3.25v.2c0,.07-.03.13-.08.19-.05.05-.11.08-.19.08l-3.1.13c-.17,0-.26-.09-.26-.26v-.59c0-.33-.09-.6-.26-.8-.17-.2-.41-.29-.7-.29s-.5.1-.68.29c-.17.2-.26.46-.26.8v7.26c0,.32.09.58.26.77.17.2.4.29.68.29.29,0,.52-.1.7-.29.17-.2.26-.45.26-.77v-.63c0-.07.02-.13.08-.19.05-.05.11-.08.19-.08l3.1.13c.07,0,.13.03.19.08.05.05.08.11.08.19v.2c0,1.35-.42,2.44-1.25,3.25-.84.81-1.94,1.22-3.33,1.22s-2.49-.41-3.31-1.22Z"/>
      <path class="st0" d="M131.58,76.24c-.84-.81-1.25-1.91-1.25-3.29v-6.59c0-1.37.42-2.46,1.25-3.28s1.96-1.23,3.37-1.23,2.52.41,3.37,1.23,1.28,1.92,1.28,3.28v6.59c0,1.38-.43,2.48-1.28,3.29s-1.97,1.22-3.37,1.22-2.53-.41-3.37-1.22ZM135.7,74.03c.18-.23.27-.53.27-.93v-6.89c0-.39-.09-.7-.27-.93-.18-.22-.43-.34-.75-.34s-.57.11-.74.34c-.17.23-.26.54-.26.93v6.89c0,.39.09.7.26.93.17.23.42.34.74.34s.57-.11.75-.34Z"/>
      <path class="st0" d="M147.3,62.1c.05-.05.11-.08.19-.08h3.05c.07,0,.13.03.19.08s.08.11.08.19v14.74c0,.07-.03.13-.08.19s-.11.08-.19.08h-3.47c-.16,0-.26-.07-.31-.22l-2.16-7.59s-.04-.07-.08-.08c-.04,0-.05.02-.05.08l.04,7.55c0,.07-.03.13-.08.19s-.11.08-.19.08h-3.05c-.07,0-.13-.03-.19-.08-.05-.05-.08-.11-.08-.19v-14.74c0-.07.03-.13.08-.19.05-.05.11-.08.19-.08h3.42c.16,0,.26.07.31.22l2.18,7.63s.04.07.08.07.05-.03.05-.09l-.02-7.57c0-.07.03-.13.08-.19Z"/>
      <path class="st0" d="M154.25,76.95c-.67-.34-1.19-.82-1.56-1.44-.37-.62-.56-1.32-.56-2.1v-.68c0-.07.03-.13.08-.19.05-.05.11-.08.19-.08h3.05c.07,0,.13.03.19.08.05.05.08.11.08.19v.5c0,.35.08.62.25.83.17.2.38.3.64.3s.48-.1.64-.29c.17-.2.25-.45.25-.75,0-.33-.13-.64-.39-.91-.26-.27-.79-.69-1.57-1.25-.73-.52-1.32-.99-1.79-1.41-.47-.42-.87-.93-1.2-1.55s-.5-1.33-.5-2.15.19-1.56.56-2.2c.37-.64.89-1.13,1.57-1.48.68-.35,1.45-.52,2.32-.52s1.67.18,2.34.53c.68.36,1.2.86,1.57,1.5.37.65.56,1.39.56,2.24v.52c0,.07-.03.13-.08.19-.05.05-.11.08-.19.08h-3.03c-.07,0-.13-.03-.19-.08-.05-.05-.08-.11-.08-.19v-.61c0-.32-.09-.58-.26-.79-.17-.2-.39-.31-.65-.31s-.47.1-.63.31c-.16.2-.24.47-.24.81,0,.36.12.69.37.98.25.29.75.71,1.5,1.27.92.68,1.61,1.24,2.07,1.66.46.42.83.89,1.09,1.41.26.52.39,1.12.39,1.82,0,1.31-.41,2.35-1.23,3.12s-1.9,1.16-3.24,1.16c-.89,0-1.67-.17-2.33-.51Z"/>
      <path class="st0" d="M171.45,62.1c.05.05.08.11.08.19v2.57c0,.07-.03.13-.08.19s-.11.08-.19.08h-2.7c-.07,0-.11.04-.11.11v11.8c0,.07-.03.13-.08.19s-.11.08-.19.08h-3.1c-.07,0-.13-.03-.19-.08-.05-.05-.08-.11-.08-.19v-11.8c0-.07-.04-.11-.11-.11h-2.6c-.07,0-.13-.03-.19-.08s-.08-.11-.08-.19v-2.57c0-.07.03-.13.08-.19s.11-.08.19-.08h9.14c.07,0,.13.03.19.08Z"/>
      <path class="st0" d="M178.39,77.07l-1.48-5.78c-.01-.06-.05-.09-.11-.09h-.33c-.07,0-.11.04-.11.11v5.71c0,.07-.03.13-.08.19s-.11.08-.19.08h-3.1c-.07,0-.13-.03-.19-.08s-.08-.11-.08-.19v-14.74c0-.07.03-.13.08-.19s.11-.08.19-.08h4.69c.84,0,1.59.2,2.25.6.65.4,1.16.96,1.52,1.68s.53,1.54.53,2.45c0,.81-.15,1.54-.45,2.19-.3.65-.72,1.17-1.25,1.56-.03.01-.05.03-.07.05s-.01.05,0,.08l1.88,6.35.02.09c0,.15-.08.22-.24.22h-3.18c-.16,0-.26-.07-.31-.22ZM176.36,65.23v3.1c0,.07.04.11.11.11h.61c.39,0,.71-.15.94-.44.23-.29.35-.69.35-1.2,0-.54-.12-.95-.35-1.24-.23-.29-.55-.44-.94-.44h-.61c-.07,0-.11.04-.11.11Z"/>
      <path class="st0" d="M185.33,76.89c-.68-.38-1.21-.93-1.59-1.62-.38-.7-.57-1.5-.57-2.42v-10.56c0-.07.03-.13.08-.19s.11-.08.19-.08h3.1c.07,0,.13.03.19.08s.08.11.08.19v10.9c0,.35.08.63.25.85.17.22.39.33.67.33s.5-.11.67-.33c.17-.22.25-.5.25-.85v-10.9c0-.07.03-.13.08-.19s.11-.08.19-.08h3.1c.07,0,.13.03.18.08s.08.11.08.19v10.56c0,.92-.19,1.72-.57,2.42s-.91,1.24-1.59,1.62c-.68.39-1.48.58-2.38.58s-1.69-.19-2.38-.58Z"/>
      <path class="st0" d="M194.75,76.24c-.83-.81-1.24-1.9-1.24-3.25v-6.7c0-1.37.42-2.45,1.24-3.25.83-.8,1.93-1.2,3.32-1.2s2.49.4,3.33,1.2c.84.8,1.25,1.88,1.25,3.25v.2c0,.07-.03.13-.08.19-.05.05-.11.08-.19.08l-3.1.13c-.17,0-.26-.09-.26-.26v-.59c0-.33-.09-.6-.26-.8-.17-.2-.41-.29-.7-.29s-.5.1-.68.29c-.17.2-.26.46-.26.8v7.26c0,.32.09.58.26.77.17.2.4.29.68.29.29,0,.52-.1.7-.29.17-.2.26-.45.26-.77v-.63c0-.07.02-.13.08-.19s.11-.08.19-.08l3.1.13c.07,0,.13.03.19.08.05.05.08.11.08.19v.2c0,1.35-.42,2.44-1.25,3.25-.84.81-1.95,1.22-3.33,1.22s-2.49-.41-3.32-1.22Z"/>
      <path class="st0" d="M213.21,62.1c.05.05.08.11.08.19v2.57c0,.07-.03.13-.08.19s-.11.08-.19.08h-2.7c-.07,0-.11.04-.11.11v11.8c0,.07-.03.13-.08.19s-.11.08-.19.08h-3.1c-.07,0-.13-.03-.19-.08s-.08-.11-.08-.19v-11.8c0-.07-.04-.11-.11-.11h-2.59c-.07,0-.13-.03-.19-.08s-.08-.11-.08-.19v-2.57c0-.07.03-.13.08-.19s.11-.08.19-.08h9.14c.07,0,.13.03.19.08Z"/>
      <path class="st0" d="M214.59,77.21c-.05-.05-.08-.11-.08-.19v-14.74c0-.07.03-.13.08-.19.05-.05.11-.08.18-.08h3.1c.07,0,.13.03.19.08.05.05.08.11.08.19v14.74c0,.07-.03.13-.08.19-.05.05-.11.08-.19.08h-3.1c-.07,0-.13-.03-.18-.08Z"/>
      <path class="st0" d="M220.71,76.24c-.84-.81-1.25-1.91-1.25-3.29v-6.59c0-1.37.42-2.46,1.25-3.28s1.96-1.23,3.37-1.23,2.52.41,3.37,1.23,1.28,1.92,1.28,3.28v6.59c0,1.38-.42,2.48-1.28,3.29s-1.97,1.22-3.37,1.22-2.53-.41-3.37-1.22ZM224.84,74.03c.18-.23.27-.53.27-.93v-6.89c0-.39-.09-.7-.27-.93-.18-.22-.43-.34-.75-.34s-.57.11-.74.34c-.17.23-.26.54-.26.93v6.89c0,.39.09.7.26.93s.42.34.74.34.57-.11.75-.34Z"/>
      <path class="st0" d="M236.44,62.1c.05-.05.11-.08.19-.08h3.05c.07,0,.13.03.18.08s.08.11.08.19v14.74c0,.07-.03.13-.08.19s-.11.08-.18.08h-3.47c-.16,0-.26-.07-.31-.22l-2.16-7.59s-.04-.07-.08-.08c-.04,0-.05.02-.05.08l.04,7.55c0,.07-.03.13-.08.19s-.11.08-.18.08h-3.05c-.07,0-.13-.03-.19-.08s-.08-.11-.08-.19v-14.74c0-.07.03-.13.08-.19s.11-.08.19-.08h3.42c.16,0,.26.07.31.22l2.18,7.63s.04.07.08.07.05-.03.05-.09l-.02-7.57c0-.07.03-.13.08-.19Z"/>
    </g>
  </g>
  <g class="st8">
    <g class="st8">
      <path class="st10" d="M126.42,83.73h-3.68s-.04.01-.04.04v2.47s.01.04.04.04h2.58c.07,0,.1.03.1.1v.42c0,.07-.03.1-.1.1h-2.58s-.04.01-.04.04v2.51s.01.04.04.04h3.68c.07,0,.1.03.1.1v.42c0,.07-.03.1-.1.1h-4.33c-.07,0-.1-.03-.1-.1v-6.8c0-.07.03-.1.1-.1h4.33c.07,0,.1.03.1.1v.42c0,.07-.03.1-.1.1Z"/>
      <path class="st10" d="M128.57,89.98c-.29-.12-.51-.28-.67-.48-.16-.2-.23-.42-.23-.67v-.12c0-.07.03-.1.1-.1h.48c.07,0,.1.03.1.1v.08c0,.22.11.41.34.58s.52.25.87.25.63-.08.84-.24c.21-.16.32-.35.32-.59,0-.17-.05-.3-.17-.41-.11-.11-.24-.19-.39-.25-.15-.06-.38-.14-.7-.23-.37-.11-.68-.21-.92-.32-.24-.11-.44-.25-.6-.45-.16-.19-.25-.43-.25-.72,0-.43.17-.77.5-1.02.33-.25.77-.38,1.32-.38.37,0,.69.06.97.18.28.12.5.29.66.5s.23.44.23.7v.03c0,.07-.03.1-.1.1h-.47c-.07,0-.1-.03-.1-.1v-.03c0-.23-.11-.42-.33-.57s-.51-.23-.88-.23c-.34,0-.61.07-.82.21-.21.14-.31.33-.31.57,0,.23.1.4.3.52.2.12.51.24.93.36.39.11.7.22.94.32.24.1.45.24.62.43s.26.44.26.75c0,.43-.17.78-.51,1.04s-.79.39-1.35.39c-.37,0-.71-.06-1-.18Z"/>
      <path class="st10" d="M134.87,85.64h-1.13s-.04.01-.04.04v2.95c0,.32.07.55.22.68.14.13.37.19.67.19h.25c.07,0,.1.03.1.1v.41c0,.07-.03.1-.1.1-.08,0-.2,0-.37,0-.48,0-.84-.09-1.09-.27-.25-.18-.37-.51-.37-1v-3.17s-.01-.04-.04-.04h-.61c-.07,0-.1-.03-.1-.1v-.39c0-.07.03-.1.1-.1h.61s.04-.01.04-.04v-1.16c0-.07.03-.1.1-.1h.49c.07,0,.1.03.1.1v1.16s.01.04.04.04h1.13c.07,0,.1.03.1.1v.39c0,.07-.03.1-.1.1Z"/>
      <path class="st10" d="M136.52,89.93c-.1-.11-.16-.24-.16-.4s.05-.3.16-.41c.1-.1.24-.15.4-.15s.29.05.4.15c.11.1.16.24.16.41s-.05.29-.16.4c-.11.11-.24.16-.4.16s-.3-.05-.4-.16Z"/>
      <path class="st10" d="M141.2,83.97c-.11-.11-.16-.24-.16-.4s.05-.3.16-.41c.11-.1.24-.15.4-.15s.29.05.4.15c.11.1.16.24.16.41s-.05.29-.16.4c-.11.11-.24.16-.4.16s-.29-.05-.4-.16ZM141.22,90v-4.86c0-.07.03-.1.1-.1h.51c.07,0,.1.03.1.1v4.86c0,.07-.03.1-.1.1h-.51c-.07,0-.1-.03-.1-.1Z"/>
      <path class="st10" d="M147.05,85.45c.32.31.48.73.48,1.26v3.3c0,.07-.03.1-.1.1h-.51c-.07,0-.1-.03-.1-.1v-3.16c0-.37-.11-.67-.33-.9-.22-.23-.51-.35-.86-.35s-.66.11-.89.34c-.23.23-.34.52-.34.89v3.18c0,.07-.03.1-.1.1h-.51c-.07,0-.1-.03-.1-.1v-4.86c0-.07.03-.1.1-.1h.51c.07,0,.1.03.1.1v.43s0,.02.02.03c.01,0,.02,0,.02,0,.29-.41.74-.62,1.35-.62.53,0,.96.16,1.27.47Z"/>
      <path class="st10" d="M151.2,90.01v-6.8c0-.07.03-.1.1-.1h2.36c.66,0,1.19.17,1.58.52.39.35.58.82.58,1.41v3.14c0,.59-.19,1.06-.58,1.41s-.92.52-1.58.52h-2.36c-.07,0-.1-.03-.1-.1ZM151.95,89.49h1.74c.43,0,.78-.13,1.03-.38.26-.25.39-.59.39-1.02v-2.95c0-.43-.13-.78-.38-1.03-.25-.25-.6-.38-1.04-.38h-1.74s-.04.01-.04.04v5.68s.01.04.04.04Z"/>
      <path class="st10" d="M160.32,85.43c.33.31.49.71.49,1.22v3.36c0,.07-.03.1-.1.1h-.51c-.07,0-.1-.03-.1-.1v-.41s0-.02-.02-.03c-.01,0-.02,0-.04,0-.17.2-.38.35-.65.46s-.56.16-.89.16c-.47,0-.87-.12-1.19-.36-.32-.24-.48-.61-.48-1.1s.18-.9.54-1.19.87-.43,1.52-.43h1.16s.04-.01.04-.04v-.38c0-.34-.1-.61-.29-.8-.19-.2-.48-.29-.89-.29-.32,0-.58.06-.78.18s-.32.29-.37.51c-.02.07-.06.1-.12.09l-.54-.07c-.07-.01-.1-.04-.09-.08.05-.37.25-.68.6-.91s.78-.35,1.3-.35c.6,0,1.06.15,1.39.46ZM159.67,89.29c.29-.2.43-.46.43-.79v-.78s-.01-.04-.04-.04h-1.05c-.44,0-.79.09-1.06.27s-.4.43-.4.75c0,.29.1.51.31.67.2.15.47.22.79.22.39,0,.73-.1,1.02-.29Z"/>
      <path class="st10" d="M165.67,85.45c.32.31.48.73.48,1.26v3.3c0,.07-.03.1-.1.1h-.51c-.07,0-.1-.03-.1-.1v-3.16c0-.37-.11-.67-.33-.9-.22-.23-.51-.35-.86-.35s-.66.11-.89.34c-.23.23-.34.52-.34.89v3.18c0,.07-.03.1-.1.1h-.51c-.07,0-.1-.03-.1-.1v-4.86c0-.07.03-.1.1-.1h.51c.07,0,.1.03.1.1v.43s0,.02.02.03c.01,0,.02,0,.02,0,.29-.41.74-.62,1.35-.62.53,0,.96.16,1.27.47Z"/>
      <path class="st10" d="M167.76,83.97c-.11-.11-.16-.24-.16-.4s.05-.3.16-.41c.11-.1.24-.15.4-.15s.29.05.4.15c.11.1.16.24.16.41s-.05.29-.16.4c-.11.11-.24.16-.4.16s-.29-.05-.4-.16ZM167.78,90v-4.86c0-.07.03-.1.1-.1h.51c.07,0,.1.03.1.1v4.86c0,.07-.03.1-.1.1h-.51c-.07,0-.1-.03-.1-.1Z"/>
      <path class="st10" d="M170.9,89.98c-.29-.12-.51-.28-.67-.48-.16-.2-.24-.42-.24-.67v-.12c0-.07.03-.1.1-.1h.48c.07,0,.1.03.1.1v.08c0,.22.11.41.34.58.23.16.52.25.87.25s.63-.08.84-.24c.21-.16.32-.35.32-.59,0-.17-.05-.3-.17-.41-.11-.11-.24-.19-.39-.25-.15-.06-.38-.14-.7-.23-.37-.11-.68-.21-.92-.32-.24-.11-.44-.25-.6-.45-.16-.19-.25-.43-.25-.72,0-.43.17-.77.5-1.02.33-.25.77-.38,1.32-.38.37,0,.69.06.97.18s.5.29.66.5.23.44.23.7v.03c0,.07-.03.1-.1.1h-.47c-.07,0-.1-.03-.1-.1v-.03c0-.23-.11-.42-.33-.57s-.51-.23-.88-.23c-.34,0-.61.07-.82.21-.21.14-.31.33-.31.57,0,.23.1.4.3.52.2.12.51.24.93.36.39.11.7.22.94.32.24.1.45.24.62.43.17.19.26.44.26.75,0,.43-.17.78-.51,1.04s-.79.39-1.35.39c-.37,0-.71-.06-1-.18Z"/>
      <path class="st10" d="M178.42,85.45c.32.31.47.73.47,1.26v3.3c0,.07-.03.1-.1.1h-.51c-.07,0-.1-.03-.1-.1v-3.16c0-.37-.11-.67-.33-.9s-.51-.35-.86-.35-.66.11-.89.34-.34.52-.34.89v3.18c0,.07-.03.1-.1.1h-.51c-.07,0-.1-.03-.1-.1v-6.8c0-.07.03-.1.1-.1h.51c.07,0,.1.03.1.1v2.37s0,.02.01.03c.01,0,.02,0,.03,0,.29-.41.74-.62,1.35-.62.53,0,.96.16,1.28.47Z"/>
      <path class="st10" d="M184.6,85.64h-1.13s-.04.01-.04.04v2.95c0,.32.07.55.22.68.14.13.37.19.67.19h.25c.07,0,.1.03.1.1v.41c0,.07-.03.1-.1.1-.08,0-.2,0-.37,0-.48,0-.84-.09-1.09-.27-.25-.18-.37-.51-.37-1v-3.17s-.01-.04-.04-.04h-.61c-.07,0-.1-.03-.1-.1v-.39c0-.07.03-.1.1-.1h.61s.04-.01.04-.04v-1.16c0-.07.03-.1.1-.1h.49c.07,0,.1.03.1.1v1.16s.01.04.04.04h1.13c.07,0,.1.03.1.1v.39c0,.07-.03.1-.1.1Z"/>
      <path class="st10" d="M188.68,85.13c.05.03.07.07.06.13l-.11.49c-.02.07-.06.09-.13.06-.11-.05-.24-.07-.39-.07h-.13c-.35.02-.63.15-.86.4-.23.24-.34.55-.34.92v2.95c0,.07-.03.1-.1.1h-.51c-.07,0-.1-.03-.1-.1v-4.86c0-.07.03-.1.1-.1h.51c.07,0,.1.03.1.1v.61s0,.03.02.03c0,0,.02,0,.02-.01.14-.25.32-.44.54-.58s.47-.21.75-.21c.22,0,.41.04.57.13Z"/>
      <path class="st10" d="M192.83,85.43c.33.31.49.71.49,1.22v3.36c0,.07-.03.1-.1.1h-.51c-.07,0-.1-.03-.1-.1v-.41s0-.02-.02-.03-.02,0-.04,0c-.17.2-.38.35-.65.46s-.56.16-.89.16c-.47,0-.87-.12-1.19-.36-.32-.24-.48-.61-.48-1.1s.18-.9.54-1.19.87-.43,1.52-.43h1.16s.04-.01.04-.04v-.38c0-.34-.1-.61-.29-.8-.19-.2-.49-.29-.89-.29-.32,0-.58.06-.78.18s-.32.29-.37.51c-.02.07-.06.1-.12.09l-.54-.07c-.07-.01-.1-.04-.09-.08.05-.37.25-.68.6-.91s.78-.35,1.3-.35c.6,0,1.06.15,1.39.46ZM192.18,89.29c.29-.2.43-.46.43-.79v-.78s-.01-.04-.04-.04h-1.05c-.44,0-.79.09-1.06.27s-.4.43-.4.75c0,.29.1.51.31.67.2.15.47.22.79.22.39,0,.73-.1,1.02-.29Z"/>
      <path class="st10" d="M198.04,83.11h.51c.07,0,.1.03.1.1v6.8c0,.07-.03.1-.1.1h-.51c-.07,0-.1-.03-.1-.1v-.42s0-.02-.01-.03-.02,0-.04.01c-.15.19-.33.34-.54.45s-.46.16-.72.16c-.47,0-.86-.12-1.18-.36-.32-.24-.53-.57-.65-.98-.09-.3-.14-.72-.14-1.27s.04-.97.12-1.24c.12-.43.34-.76.66-1.01.32-.24.72-.36,1.19-.36.26,0,.5.05.72.15.22.1.4.25.55.45.01.01.03.02.04.01,0,0,.01-.01.01-.02v-2.35c0-.07.03-.1.1-.1ZM197.89,88.33c.03-.18.04-.43.04-.75s-.01-.57-.04-.75-.07-.34-.14-.48c-.08-.23-.21-.41-.4-.55-.18-.14-.4-.2-.65-.2-.27,0-.5.07-.69.2-.19.13-.33.31-.42.53-.08.15-.14.31-.17.5-.04.18-.06.44-.06.76s.01.56.04.74c.03.18.07.33.14.47.08.24.22.43.42.57s.45.21.72.21.49-.07.67-.21c.18-.14.31-.33.4-.56.06-.13.1-.29.13-.47Z"/>
      <path class="st10" d="M200.34,83.97c-.11-.11-.16-.24-.16-.4s.05-.3.16-.41c.11-.1.24-.15.4-.15s.29.05.4.15c.11.1.16.24.16.41s-.05.29-.16.4-.24.16-.4.16-.29-.05-.4-.16ZM200.36,90v-4.86c0-.07.03-.1.1-.1h.51c.07,0,.1.03.1.1v4.86c0,.07-.03.1-.1.1h-.51c-.07,0-.1-.03-.1-.1Z"/>
      <path class="st10" d="M204.98,85.64h-1.13s-.04.01-.04.04v2.95c0,.32.07.55.21.68s.37.19.67.19h.25c.07,0,.1.03.1.1v.41c0,.07-.03.1-.1.1-.08,0-.2,0-.37,0-.48,0-.84-.09-1.09-.27-.25-.18-.37-.51-.37-1v-3.17s-.01-.04-.04-.04h-.61c-.07,0-.1-.03-.1-.1v-.39c0-.07.03-.1.1-.1h.61s.04-.01.04-.04v-1.16c0-.07.03-.1.1-.1h.49c.07,0,.1.03.1.1v1.16s.01.04.04.04h1.13c.07,0,.1.03.1.1v.39c0,.07-.03.1-.1.1Z"/>
      <path class="st10" d="M206.53,83.97c-.11-.11-.16-.24-.16-.4s.05-.3.16-.41c.11-.1.24-.15.4-.15s.29.05.4.15c.11.1.16.24.16.41s-.05.29-.16.4c-.11.11-.24.16-.4.16s-.29-.05-.4-.16ZM206.55,90v-4.86c0-.07.03-.1.1-.1h.51c.07,0,.1.03.1.1v4.86c0,.07-.03.1-.1.1h-.51c-.07,0-.1-.03-.1-.1Z"/>
      <path class="st10" d="M209.69,89.82c-.35-.25-.59-.59-.72-1.02-.09-.31-.14-.72-.14-1.23s.05-.92.14-1.22c.13-.43.36-.76.71-1.01.35-.25.77-.37,1.26-.37s.88.12,1.22.37c.34.25.58.58.71,1,.09.29.14.7.14,1.23s-.05.95-.14,1.23c-.13.43-.36.77-.71,1.02-.34.25-.75.37-1.23.37s-.89-.12-1.24-.37ZM211.75,89.31c.23-.18.38-.42.46-.71.06-.24.09-.58.09-1.01s-.03-.78-.08-1.01c-.08-.3-.24-.54-.46-.71-.23-.18-.51-.26-.83-.26s-.6.09-.83.26c-.23.18-.38.42-.46.71-.05.23-.08.57-.08,1.01s.03.78.08,1.01c.07.3.22.54.45.71.23.18.51.26.85.26s.59-.09.82-.26Z"/>
      <path class="st10" d="M217.83,85.45c.32.31.48.73.48,1.26v3.3c0,.07-.03.1-.1.1h-.51c-.07,0-.1-.03-.1-.1v-3.16c0-.37-.11-.67-.33-.9-.22-.23-.51-.35-.87-.35s-.66.11-.89.34c-.23.23-.34.52-.34.89v3.18c0,.07-.03.1-.1.1h-.51c-.07,0-.1-.03-.1-.1v-4.86c0-.07.03-.1.1-.1h.51c.07,0,.1.03.1.1v.43s0,.02.02.03.02,0,.02,0c.29-.41.74-.62,1.35-.62.53,0,.96.16,1.27.47Z"/>
    </g>
  </g>
  <g id="decorative-elements">
    <g>
      <rect class="st3" x="29.7" y="33.11" width="12" height="3"/>
      <rect class="st11" x="39.7" y="25.11" width="3" height="15"/>
    </g>
    <rect class="st13" x="249.98" y="20.11" width="4" height="20"/>
    <rect class="st13" x="249.98" y="28.11" width="12" height="4"/>
    <polyline class="st1" points="249.98 40.11 249.98 20.11 261.98 20.11 261.98 40.11"/>
  </g>
  <g class="st8">
    <g class="st8">
      <path class="st14" d="M124.61,98.37c.29.12.51.29.66.52.15.23.22.51.22.83,0,.48-.15.85-.46,1.12-.31.27-.71.4-1.21.4h-1.94c-.05,0-.08-.03-.08-.08v-5.44c0-.05.03-.08.08-.08h1.88c.52,0,.92.13,1.22.38s.44.62.44,1.08c0,.29-.07.54-.21.75-.14.21-.34.36-.6.47-.03.02-.03.03,0,.05ZM122.37,96.17v1.92s.01.03.03.03h1.36c.34,0,.6-.09.8-.26.2-.18.3-.41.3-.7,0-.31-.1-.56-.3-.74-.2-.18-.47-.28-.8-.28h-1.36s-.03.01-.03.03ZM124.63,100.45c.2-.19.3-.45.3-.78s-.1-.58-.31-.78c-.21-.2-.48-.29-.83-.29h-1.38s-.03.01-.03.03v2.07s.01.03.03.03h1.42c.34,0,.6-.1.8-.29Z"/>
      <path class="st14" d="M129.13,97.19h.41c.05,0,.08.03.08.08v3.89c0,.05-.03.08-.08.08h-.41c-.05,0-.08-.03-.08-.08v-.34s0-.02-.02-.02c-.01,0-.02,0-.02,0-.22.33-.58.5-1.06.5-.26,0-.49-.05-.71-.16-.22-.1-.39-.25-.51-.45-.13-.2-.19-.43-.19-.71v-2.7c0-.05.03-.08.08-.08h.41c.05,0,.08.03.08.08v2.54c0,.3.09.54.26.72.17.18.4.27.7.27s.54-.09.72-.27.27-.42.27-.72v-2.54c0-.05.03-.08.08-.08Z"/>
      <path class="st14" d="M130.95,96.33c-.09-.08-.13-.19-.13-.32s.04-.24.13-.32c.08-.08.19-.12.32-.12s.23.04.32.12c.08.08.13.19.13.32s-.04.24-.13.32c-.09.09-.19.13-.32.13s-.23-.04-.32-.13ZM130.97,101.15v-3.89c0-.05.03-.08.08-.08h.41c.05,0,.08.03.08.08v3.89c0,.05-.03.08-.08.08h-.41c-.05,0-.08-.03-.08-.08Z"/>
      <path class="st14" d="M132.93,101.16v-5.44c0-.05.03-.08.08-.08h.41c.05,0,.08.03.08.08v5.44c0,.05-.03.08-.08.08h-.41c-.05,0-.08-.03-.08-.08Z"/>
      <path class="st14" d="M137.36,95.64h.41c.05,0,.08.03.08.08v5.44c0,.05-.03.08-.08.08h-.41c-.05,0-.08-.03-.08-.08v-.34s0-.02-.01-.02c0,0-.02,0-.03.01-.12.15-.26.27-.44.36-.17.09-.37.13-.58.13-.37,0-.69-.1-.94-.29-.25-.19-.43-.45-.52-.78-.07-.24-.11-.58-.11-1.02s.03-.77.1-.99c.1-.34.27-.61.53-.8.26-.19.57-.29.95-.29.21,0,.4.04.58.12.18.08.32.2.44.36.01.01.02.01.03.01,0,0,.01,0,.01-.02v-1.88c0-.05.03-.08.08-.08ZM137.24,99.82c.02-.14.03-.34.03-.6s-.01-.46-.03-.6c-.02-.15-.06-.28-.11-.39-.06-.18-.17-.33-.32-.44-.15-.11-.32-.16-.52-.16-.21,0-.4.05-.55.16s-.27.25-.34.42c-.06.12-.11.25-.14.4s-.04.35-.04.61.01.45.03.59c.02.14.06.27.11.38.06.19.18.34.34.46.16.11.36.17.58.17s.39-.06.54-.17c.14-.11.25-.26.32-.45.05-.11.08-.23.1-.38Z"/>
      <path class="st14" d="M139.2,96.33c-.09-.08-.13-.19-.13-.32s.04-.24.13-.32c.08-.08.19-.12.32-.12s.23.04.32.12c.08.08.13.19.13.32s-.04.24-.13.32c-.09.09-.19.13-.32.13s-.23-.04-.32-.13ZM139.21,101.15v-3.89c0-.05.03-.08.08-.08h.41c.05,0,.08.03.08.08v3.89c0,.05-.03.08-.08.08h-.41c-.05,0-.08-.03-.08-.08Z"/>
      <path class="st14" d="M143.87,97.51c.25.25.38.59.38,1.01v2.64c0,.05-.03.08-.08.08h-.41c-.05,0-.08-.03-.08-.08v-2.53c0-.29-.09-.53-.27-.72s-.41-.28-.69-.28-.53.09-.71.27-.27.42-.27.71v2.54c0,.05-.03.08-.08.08h-.41c-.05,0-.08-.03-.08-.08v-3.89c0-.05.03-.08.08-.08h.41c.05,0,.08.03.08.08v.34s0,.02.01.02c0,0,.01,0,.02,0,.23-.33.59-.5,1.08-.5.43,0,.77.12,1.02.38Z"/>
      <path class="st14" d="M148.06,97.19h.41c.05,0,.08.03.08.08v3.83c0,.6-.17,1.03-.52,1.31-.34.28-.82.42-1.42.42-.12,0-.22,0-.28,0-.05,0-.08-.04-.08-.09l.02-.37s0-.05.02-.06c.02-.01.03-.02.06-.01h.22c.5,0,.86-.09,1.08-.28.22-.2.34-.5.34-.92v-.3s0-.02-.01-.02-.02,0-.03.01c-.25.32-.59.48-1.05.48-.35,0-.65-.09-.92-.28-.27-.19-.45-.45-.54-.79-.06-.22-.1-.54-.1-.98,0-.23,0-.43.02-.59.01-.16.04-.3.08-.43.1-.32.27-.58.52-.77.25-.19.55-.29.9-.29.47,0,.83.16,1.08.47.01.01.02.01.03,0,0,0,.01-.01.01-.02v-.31c0-.05.03-.08.08-.08ZM147.97,99.72c0-.12,0-.29,0-.51,0-.27,0-.45,0-.55,0-.09-.02-.18-.04-.26-.04-.22-.15-.41-.32-.56-.17-.15-.38-.22-.64-.22s-.46.07-.64.22c-.17.14-.29.33-.36.56-.05.17-.08.44-.08.8,0,.39.03.66.08.81.05.22.17.41.35.56s.4.22.65.22.48-.07.64-.22c.17-.14.27-.33.32-.55.02-.08.03-.18.03-.3Z"/>
      <path class="st14" d="M154.5,99.1v.26c0,.05-.03.08-.08.08h-2.58s-.03.01-.03.03c.01.29.03.48.05.57.06.24.18.43.38.57s.44.21.74.21c.22,0,.42-.05.59-.15.17-.1.3-.25.4-.43.03-.05.07-.06.11-.03l.31.18s.05.06.03.11c-.13.26-.33.46-.6.6-.27.15-.57.22-.92.22-.38,0-.7-.1-.95-.27-.26-.18-.44-.42-.55-.74-.1-.26-.14-.62-.14-1.1,0-.22,0-.41.01-.55,0-.14.03-.27.06-.38.09-.35.27-.62.55-.83.27-.21.61-.31,1-.31.48,0,.86.12,1.12.37s.42.59.49,1.04c.02.15.03.34.03.56ZM152.21,97.83c-.17.14-.29.32-.34.55-.03.11-.05.29-.06.54,0,.02.01.03.03.03h2.07s.03-.01.03-.03c-.01-.24-.03-.41-.05-.51-.06-.24-.18-.43-.36-.57-.18-.14-.4-.21-.68-.21s-.48.07-.65.2Z"/>
      <path class="st14" d="M155.11,101.21s0-.04.01-.06l1.34-1.9s.01-.03,0-.05l-1.34-1.9s-.02-.02-.02-.04c0-.04.02-.06.07-.06h.43s.07.02.1.05l1.05,1.51s.01,0,.02,0,.02,0,.02,0l1.04-1.51s.05-.05.1-.05h.47s.05,0,.06.03c.01.02,0,.04-.02.07l-1.34,1.9s0,.03,0,.05l1.34,1.9s.02.03.02.05c0,.01,0,.02-.02.03-.01.01-.03.02-.05.02h-.44s-.07-.02-.1-.05l-1.04-1.51s-.01-.02-.02-.02-.02,0-.02.02l-1.06,1.51s-.05.05-.1.05h-.46s-.05-.01-.07-.03Z"/>
      <path class="st14" d="M159.71,101c-.27-.2-.46-.47-.56-.81-.07-.23-.1-.57-.1-.99,0-.38.03-.71.1-.98.1-.33.28-.6.56-.8.28-.2.61-.3.99-.3s.73.1,1.01.3c.29.2.47.44.56.74.03.1.04.18.05.24v.02s-.02.06-.07.07l-.4.06h-.02s-.06-.02-.07-.07l-.02-.12c-.05-.2-.17-.38-.35-.52-.19-.14-.41-.21-.68-.21s-.49.07-.67.21c-.18.14-.29.33-.35.56-.05.2-.07.47-.07.81,0,.35.02.62.07.82.05.24.17.43.35.57.18.14.4.21.67.21s.49-.07.68-.2c.19-.14.31-.31.36-.52v-.06c.01-.05.04-.08.1-.06l.39.06c.05.01.08.04.07.09l-.03.16c-.08.31-.26.56-.55.75-.29.19-.63.29-1.02.29s-.71-.1-.99-.3Z"/>
      <path class="st14" d="M166.44,99.1v.26c0,.05-.03.08-.08.08h-2.58s-.03.01-.03.03c.01.29.03.48.05.57.06.24.18.43.38.57s.44.21.74.21c.22,0,.42-.05.59-.15.17-.1.3-.25.4-.43.03-.05.07-.06.11-.03l.31.18s.05.06.03.11c-.13.26-.33.46-.6.6-.27.15-.57.22-.92.22-.38,0-.7-.1-.95-.27-.26-.18-.44-.42-.55-.74-.1-.26-.14-.62-.14-1.1,0-.22,0-.41.01-.55,0-.14.03-.27.06-.38.09-.35.27-.62.55-.83.27-.21.61-.31,1-.31.48,0,.86.12,1.12.37.26.25.42.59.49,1.04.02.15.03.34.03.56ZM164.15,97.83c-.17.14-.29.32-.34.55-.03.11-.05.29-.06.54,0,.02.01.03.03.03h2.07s.03-.01.03-.03c-.01-.24-.03-.41-.05-.51-.06-.24-.18-.43-.36-.57-.18-.14-.4-.21-.68-.21s-.48.07-.65.2Z"/>
      <path class="st14" d="M167.57,101.16v-5.44c0-.05.03-.08.08-.08h.41c.05,0,.08.03.08.08v5.44c0,.05-.03.08-.08.08h-.41c-.05,0-.08-.03-.08-.08Z"/>
      <path class="st14" d="M169.41,101.16v-5.44c0-.05.03-.08.08-.08h.41c.05,0,.08.03.08.08v5.44c0,.05-.03.08-.08.08h-.41c-.05,0-.08-.03-.08-.08Z"/>
      <path class="st14" d="M174.38,99.1v.26c0,.05-.03.08-.08.08h-2.58s-.03.01-.03.03c.01.29.03.48.05.57.06.24.18.43.38.57.19.14.44.21.74.21.22,0,.42-.05.59-.15.17-.1.3-.25.4-.43.03-.05.07-.06.11-.03l.31.18s.05.06.03.11c-.13.26-.33.46-.6.6-.27.15-.57.22-.92.22-.38,0-.7-.1-.95-.27s-.44-.42-.55-.74c-.1-.26-.14-.62-.14-1.1,0-.22,0-.41.01-.55,0-.14.03-.27.06-.38.09-.35.27-.62.55-.83s.61-.31,1-.31c.49,0,.86.12,1.12.37.26.25.42.59.49,1.04.02.15.03.34.03.56ZM172.09,97.83c-.17.14-.29.32-.34.55-.03.11-.05.29-.06.54,0,.02.01.03.03.03h2.07s.03-.01.03-.03c-.01-.24-.03-.41-.05-.51-.06-.24-.18-.43-.36-.57-.18-.14-.4-.21-.68-.21s-.48.07-.65.2Z"/>
      <path class="st14" d="M178.21,97.51c.25.25.38.59.38,1.01v2.64c0,.05-.03.08-.08.08h-.41c-.05,0-.08-.03-.08-.08v-2.53c0-.29-.09-.53-.27-.72s-.41-.28-.69-.28-.53.09-.71.27c-.18.18-.27.42-.27.71v2.54c0,.05-.03.08-.08.08h-.41c-.05,0-.08-.03-.08-.08v-3.89c0-.05.03-.08.08-.08h.41c.05,0,.08.03.08.08v.34s0,.02.01.02c0,0,.01,0,.02,0,.23-.33.59-.5,1.08-.5.43,0,.77.12,1.02.38Z"/>
      <path class="st14" d="M180.31,101c-.28-.2-.46-.47-.56-.81-.07-.23-.1-.57-.1-.99,0-.38.03-.71.1-.98.1-.33.28-.6.56-.8.28-.2.61-.3.99-.3s.73.1,1.01.3c.29.2.47.44.56.74.03.1.04.18.05.24v.02s-.02.06-.07.07l-.4.06h-.02s-.06-.02-.07-.07l-.02-.12c-.05-.2-.17-.38-.35-.52-.19-.14-.41-.21-.68-.21s-.49.07-.67.21c-.18.14-.29.33-.35.56-.05.2-.07.47-.07.81,0,.35.02.62.07.82.05.24.17.43.35.57.18.14.4.21.67.21s.49-.07.68-.2c.19-.14.31-.31.36-.52v-.06c.01-.05.04-.08.1-.06l.39.06c.05.01.08.04.07.09l-.03.16c-.08.31-.26.56-.55.75-.29.19-.63.29-1.02.29s-.71-.1-.99-.3Z"/>
      <path class="st14" d="M187.04,99.1v.26c0,.05-.03.08-.08.08h-2.58s-.03.01-.03.03c.01.29.03.48.05.57.06.24.18.43.38.57.19.14.44.21.74.21.22,0,.42-.05.59-.15s.3-.25.4-.43c.03-.05.07-.06.11-.03l.31.18s.05.06.03.11c-.13.26-.33.46-.6.6-.27.15-.57.22-.92.22-.38,0-.7-.1-.95-.27-.26-.18-.44-.42-.55-.74-.1-.26-.14-.62-.14-1.1,0-.22,0-.41.01-.55s.03-.27.06-.38c.09-.35.27-.62.55-.83.27-.21.61-.31,1-.31.48,0,.86.12,1.12.37.26.25.42.59.49,1.04.02.15.03.34.03.56ZM184.75,97.83c-.17.14-.29.32-.34.55-.03.11-.05.29-.06.54,0,.02.01.03.03.03h2.07s.03-.01.03-.03c-.01-.24-.03-.41-.05-.51-.06-.24-.18-.43-.36-.57-.18-.14-.4-.21-.68-.21s-.48.07-.65.2Z"/>
      <path class="st14" d="M190.3,101.14c-.23-.1-.41-.22-.54-.38-.13-.16-.19-.34-.19-.54v-.1c0-.05.03-.08.08-.08h.38c.05,0,.08.03.08.08v.06c0,.18.09.33.28.46.18.13.41.2.69.2s.5-.06.67-.19c.17-.12.26-.28.26-.48,0-.13-.04-.24-.13-.33-.09-.09-.19-.15-.31-.2s-.31-.11-.56-.18c-.3-.08-.54-.17-.74-.26-.19-.08-.35-.2-.48-.36-.13-.15-.2-.35-.2-.58,0-.34.13-.61.4-.82.27-.2.62-.3,1.06-.3.29,0,.55.05.78.14.23.1.4.23.52.4.12.17.18.36.18.56v.02c0,.05-.03.08-.08.08h-.38c-.05,0-.08-.03-.08-.08v-.02c0-.18-.09-.33-.26-.46-.17-.12-.41-.18-.7-.18-.27,0-.49.05-.66.16-.17.11-.25.26-.25.45,0,.18.08.32.24.42.16.1.41.19.74.29.31.09.56.18.75.26.19.08.36.2.5.35.14.15.21.35.21.6,0,.35-.14.62-.41.83-.27.21-.63.31-1.08.31-.3,0-.56-.05-.8-.14Z"/>
      <path class="st14" d="M193.68,96.33c-.08-.08-.13-.19-.13-.32s.04-.24.13-.32c.08-.08.19-.12.32-.12s.23.04.32.12c.08.08.13.19.13.32s-.04.24-.13.32-.19.13-.32.13-.24-.04-.32-.13ZM193.69,101.15v-3.89c0-.05.03-.08.08-.08h.41c.05,0,.08.03.08.08v3.89c0,.05-.03.08-.08.08h-.41c-.05,0-.08-.03-.08-.08Z"/>
      <path class="st14" d="M198.35,97.51c.25.25.38.59.38,1.01v2.64c0,.05-.03.08-.08.08h-.41c-.05,0-.08-.03-.08-.08v-2.53c0-.29-.09-.53-.27-.72s-.41-.28-.69-.28-.53.09-.71.27c-.18.18-.27.42-.27.71v2.54c0,.05-.03.08-.08.08h-.41c-.05,0-.08-.03-.08-.08v-3.89c0-.05.03-.08.08-.08h.41c.05,0,.08.03.08.08v.34s0,.02.01.02c0,0,.01,0,.02,0,.23-.33.59-.5,1.08-.5.43,0,.77.12,1.02.38Z"/>
      <path class="st14" d="M200.45,101c-.28-.2-.46-.47-.56-.81-.07-.23-.1-.57-.1-.99,0-.38.03-.71.1-.98.1-.33.28-.6.56-.8.28-.2.61-.3.99-.3s.73.1,1.01.3c.29.2.47.44.56.74.03.1.04.18.05.24v.02s-.02.06-.07.07l-.4.06h-.02s-.06-.02-.07-.07l-.02-.12c-.05-.2-.17-.38-.35-.52-.19-.14-.41-.21-.68-.21s-.49.07-.67.21c-.18.14-.29.33-.35.56-.05.2-.07.47-.07.81,0,.35.02.62.07.82.05.24.17.43.35.57.18.14.4.21.67.21s.49-.07.68-.2c.19-.14.31-.31.36-.52v-.06c.01-.05.04-.08.1-.06l.39.06c.05.01.08.04.07.09l-.03.16c-.08.31-.26.56-.55.75-.29.19-.63.29-1.02.29s-.71-.1-.99-.3Z"/>
      <path class="st14" d="M207.18,99.1v.26c0,.05-.03.08-.08.08h-2.58s-.03.01-.03.03c.01.29.03.48.05.57.06.24.18.43.38.57.19.14.44.21.74.21.22,0,.42-.05.59-.15s.3-.25.4-.43c.03-.05.07-.06.11-.03l.31.18s.05.06.03.11c-.13.26-.33.46-.6.6-.27.15-.57.22-.92.22-.38,0-.7-.1-.95-.27-.26-.18-.44-.42-.55-.74-.1-.26-.14-.62-.14-1.1,0-.22,0-.41.01-.55s.03-.27.06-.38c.09-.35.27-.62.55-.83.27-.21.61-.31,1-.31.48,0,.86.12,1.12.37.26.25.42.59.49,1.04.02.15.03.34.03.56ZM204.89,97.83c-.17.14-.29.32-.34.55-.03.11-.05.29-.06.54,0,.02.01.03.03.03h2.07s.03-.01.03-.03c-.01-.24-.03-.41-.05-.51-.06-.24-.18-.43-.36-.57-.18-.14-.4-.21-.68-.21s-.48.07-.65.2Z"/>
      <path class="st14" d="M210.81,95.64h.43c.05,0,.08.03.08.08v5.44c0,.05-.03.08-.08.08h-.41c-.05,0-.08-.03-.08-.08v-4.87s0-.02-.01-.02c0,0-.02,0-.03,0l-.85.34h-.03s-.05-.01-.06-.06l-.04-.3v-.02s.02-.05.06-.08l.92-.49s.07-.02.1-.02Z"/>
      <path class="st14" d="M215.72,97.38v2.5c0,.44-.14.79-.43,1.04-.29.26-.66.39-1.13.39s-.81-.13-1.09-.38c-.28-.25-.42-.58-.42-.99v-.11c0-.05.03-.08.08-.08h.41c.05,0,.08.03.08.08v.06c0,.27.09.49.26.66.18.17.4.26.68.26s.53-.09.71-.27c.19-.18.28-.41.28-.71v-1.17s0-.02-.02-.02-.02,0-.02.01c-.23.31-.59.47-1.06.47-.34,0-.62-.07-.84-.22-.23-.15-.4-.36-.52-.63-.11-.22-.17-.53-.17-.91,0-.33.04-.59.12-.8.11-.31.29-.55.54-.72.25-.17.55-.26.92-.26.38,0,.71.09.97.28.26.18.45.44.55.76.06.21.1.46.1.75ZM214.72,98.46c.16-.11.28-.27.34-.48.06-.15.09-.37.09-.65,0-.23-.02-.42-.07-.58-.06-.2-.18-.37-.34-.49-.17-.12-.37-.18-.61-.18s-.43.06-.59.17c-.17.12-.28.28-.35.5-.06.15-.09.35-.09.61,0,.27.03.49.1.64.06.19.18.35.34.46.16.12.36.17.59.17s.43-.06.6-.17Z"/>
      <path class="st14" d="M219.92,99.67c0,.37-.08.68-.23.94-.13.22-.31.39-.54.51-.23.12-.51.18-.82.18s-.6-.06-.84-.19-.42-.31-.55-.55c-.15-.27-.22-.57-.22-.9,0-.28.06-.55.17-.8.12-.27.32-.47.58-.6.03-.01.03-.02,0-.04-.18-.1-.32-.24-.43-.41-.16-.23-.24-.49-.24-.78s.08-.57.24-.82c.13-.21.31-.37.53-.48.23-.12.48-.17.76-.17s.55.06.77.17c.22.11.39.28.52.48.16.25.23.52.23.82s-.08.56-.24.8c-.1.14-.24.28-.42.39-.03.02-.03.03,0,.04.27.13.47.34.58.62.1.22.15.48.15.78ZM219.35,99.63c0-.25-.04-.47-.13-.65-.16-.35-.46-.53-.9-.53s-.71.17-.88.5c-.1.17-.14.4-.14.69s.06.54.18.73c.18.29.47.44.86.44s.65-.14.82-.42c.13-.2.2-.46.2-.76ZM217.35,97.03c0,.22.06.42.17.58.08.13.2.23.33.3s.29.1.47.1.33-.04.47-.11.25-.17.34-.31c.1-.14.15-.34.15-.58,0-.18-.04-.34-.12-.48-.08-.15-.19-.27-.34-.36-.14-.09-.31-.13-.51-.13-.19,0-.35.04-.5.14-.14.09-.26.21-.34.37-.08.16-.13.32-.13.47Z"/>
      <path class="st14" d="M221.55,101.21s-.01-.04,0-.07l1.85-4.97s0-.02,0-.03-.01-.01-.02-.01h-2.16s-.03.01-.03.03v.37c0,.05-.03.08-.08.08h-.33c-.05,0-.08-.03-.08-.08v-.82c0-.05.04-.08.09-.08h3.15c.05,0,.08.03.08.08v.37s0,.05-.02.1l-1.84,4.99s-.05.06-.1.06h-.45s-.05,0-.06-.03Z"/>
    </g>
  </g>
</svg>